<svg version="1.2" xmlns="http://www.w3.org/2000/svg" viewBox="0 0 600 849" width="600" height="849">
	<title>1-default</title>
	<defs>
		<clipPath clipPathUnits="userSpaceOnUse" id="cp1">
			<path d="m1094-51.99v1682.08h-2356.55v-1682.08z"/>
		</clipPath>
	</defs>
	<style>
		.s0 { fill: #7c868c } 
		.s1 { fill: #e1e1df } 
		.s2 { fill: #bec0be } 
		.s3 { fill: none;stroke: #525d5f;stroke-linecap: round;stroke-linejoin: round;stroke-width: 6 } 
		.s4 { fill: none;stroke: #525d5f;stroke-linecap: round;stroke-linejoin: round;stroke-width: 4 } 
		.s5 { fill: none;stroke: #929092;stroke-linecap: round;stroke-linejoin: round;stroke-width: 6 } 
		.s6 { fill: none;stroke: #929092;stroke-linecap: round;stroke-linejoin: round;stroke-width: 4 } 
	</style>
	<g id="layer1">
		<g id="Folder 6">
			<g id="g255869">
				<path id="path255871" class="s0" d="m333.8 601.4l-24.2 3-2-16.2 5-11 7.1-13.2-4.1-15.1-2-9.1 7.1-8h11.1l8 6 6.1 11.1 2 15.1-10.1 21.2z"/>
			</g>
			<g id="g255873">
				<g id="Clip-Path: g255875" clip-path="url(#cp1)">
					<g id="g255875">
						<g id="g255881">
							<path id="path255883" fill-rule="evenodd" class="s1" d="m319.2 643.7c-10.9 0-19.7-8.8-19.7-19.7 0-10.8 8.8-19.6 19.7-19.6 10.8 0 19.6 8.8 19.6 19.6 0 10.9-8.8 19.7-19.6 19.7z"/>
						</g>
						<g id="g255885">
							<path id="path255887" class="s2" d="m352.9 633.6l-17.1 10.1 3-12.1-1-15.1-11.1-12.1h16.1l10.1 13.1z"/>
						</g>
						<g id="g255889">
							<path id="path255891" class="s2" d="m323.7 629.6h-9.1l-1-9.1 10.1-2z"/>
						</g>
						<g id="g255893">
							<path id="path255895" fill-rule="evenodd" class="s3" d="m309.8 604.6c-2.4-4.8-3.3-10.5-2.5-15.9 0.9-5.4 3.4-10.5 7.2-14.4 3.2-3.2 4.6-8 4.8-12.5 0.2-4.4-1.1-8.9-3.7-12.6"/>
						</g>
						<g id="g255897">
							<path id="path255899" fill-rule="evenodd" class="s3" d="m336.5 601.6c-1.8-3.7-1.5-8.3 0-12.2 1.4-3.9 3.9-7.4 6.3-10.8 7.3-10.1 6.5-24.8-0.5-35.1-2.1-3.2-5-6-7.8-8.5-2.8-2.4-6.3-4.3-10-4.5-3.8-0.2-7.7 1.5-9.6 4.8-2.3 4.1-2.3 9.6 0.6 13.7"/>
						</g>
						<g id="g255901">
							<path id="path255903" fill-rule="evenodd" class="s4" d="m333.8 592.3c-2.1 0.4-16.8 2.6-25.2-3"/>
						</g>
						<g id="g255905">
							<path id="path255907" fill-rule="evenodd" class="s4" d="m338.3 582.4c-1.5-0.2-16.6 0.8-22.7-7.3"/>
						</g>
						<g id="g255909">
							<path id="path255911" fill-rule="evenodd" class="s4" d="m347.9 566.1c-1-1-15.8 7.1-28.6-2"/>
						</g>
						<g id="g255913">
							<path id="path255915" fill-rule="evenodd" class="s4" d="m342.7 544.3c-0.9-0.4-6.9 14.7-22.5 10.3"/>
						</g>
						<g id="g255917">
							<path id="path255919" fill-rule="evenodd" class="s5" d="m319.2 644.7c-11.5 0-20.7-9.2-20.7-20.7 0-11.4 9.2-20.6 20.7-20.6 11.4 0 20.6 9.2 20.6 20.6 0 11.5-9.2 20.7-20.6 20.7z"/>
						</g>
						<g id="g255921">
							<path id="path255923" fill-rule="evenodd" class="s5" d="m352.5 623c0-11.4-9.3-20.6-20.7-20.6l-12.6 1"/>
						</g>
						<g id="g255925">
							<path id="path255927" fill-rule="evenodd" class="s5" d="m352.5 623c0 11.4-9.3 20.7-20.7 20.7l-9.7 0.9"/>
						</g>
						<g id="g255929">
							<path id="path255931" fill-rule="evenodd" class="s6" d="m319.2 630.6c-3.7 0-6.6-2.9-6.6-6.6 0-3.6 2.9-6.5 6.6-6.5 3.6 0 6.5 2.9 6.5 6.5 0 3.7-2.9 6.6-6.5 6.6z"/>
						</g>
					</g>
				</g>
			</g>
		</g>
	</g>
</svg>