<?xml version="1.0" encoding="UTF-8" standalone="no"?>
<!-- Created with Inkscape (http://www.inkscape.org/) -->

<svg
   width="210mm"
   height="297mm"
   viewBox="0 0 210 297"
   version="1.1"
   id="svg9527"
   inkscape:version="1.1.2 (b8e25be8, 2022-02-05)"
   sodipodi:docname="robot-1-hearing-aid.svg"
   xmlns:inkscape="http://www.inkscape.org/namespaces/inkscape"
   xmlns:sodipodi="http://sodipodi.sourceforge.net/DTD/sodipodi-0.dtd"
   xmlns="http://www.w3.org/2000/svg"
   xmlns:svg="http://www.w3.org/2000/svg">
  <sodipodi:namedview
     id="namedview9529"
     pagecolor="#ffffff"
     bordercolor="#666666"
     borderopacity="1.0"
     inkscape:pageshadow="2"
     inkscape:pageopacity="0.0"
     inkscape:pagecheckerboard="0"
     inkscape:document-units="mm"
     showgrid="false"
     inkscape:zoom="0.32026165"
     inkscape:cx="597.94859"
     inkscape:cy="544.86699"
     inkscape:window-width="1312"
     inkscape:window-height="959"
     inkscape:window-x="0"
     inkscape:window-y="25"
     inkscape:window-maximized="0"
     inkscape:current-layer="layer1" />
  <defs
     id="defs9524">
    <clipPath
       clipPathUnits="userSpaceOnUse"
       id="clipPath255835">
      <path
         d="M 0,1668 H 2338 V 0 H 0 Z"
         id="path255833" />
    </clipPath>
    <clipPath
       clipPathUnits="userSpaceOnUse"
       id="clipPath255879">
      <path
         d="M 0,1668 H 2338 V 0 H 0 Z"
         id="path255877" />
    </clipPath>
    <clipPath
       clipPathUnits="userSpaceOnUse"
       id="clipPath255949">
      <path
         d="M 0,1668 H 2338 V 0 H 0 Z"
         id="path255947" />
    </clipPath>
    <clipPath
       clipPathUnits="userSpaceOnUse"
       id="clipPath255993">
      <path
         d="M 0,1668 H 2338 V 0 H 0 Z"
         id="path255991" />
    </clipPath>
    <clipPath
       clipPathUnits="userSpaceOnUse"
       id="clipPath256165">
      <path
         d="M 0,1668 H 2338 V 0 H 0 Z"
         id="path256163" />
    </clipPath>
    <clipPath
       clipPathUnits="userSpaceOnUse"
       id="clipPath256237">
      <path
         d="M 0,1668 H 2338 V 0 H 0 Z"
         id="path256235" />
    </clipPath>
    <clipPath
       clipPathUnits="userSpaceOnUse"
       id="clipPath256353">
      <path
         d="M 0,1668 H 2338 V 0 H 0 Z"
         id="path256351" />
    </clipPath>
    <clipPath
       clipPathUnits="userSpaceOnUse"
       id="clipPath256425">
      <path
         d="M 0,1668 H 2338 V 0 H 0 Z"
         id="path256423" />
    </clipPath>
    <clipPath
       clipPathUnits="userSpaceOnUse"
       id="clipPath256477">
      <path
         d="M 0,1668 H 2338 V 0 H 0 Z"
         id="path256475" />
    </clipPath>
    <clipPath
       clipPathUnits="userSpaceOnUse"
       id="clipPath256565">
      <path
         d="M 0,1668 H 2338 V 0 H 0 Z"
         id="path256563" />
    </clipPath>
    <clipPath
       clipPathUnits="userSpaceOnUse"
       id="clipPath256657">
      <path
         d="M 0,1668 H 2338 V 0 H 0 Z"
         id="path256655" />
    </clipPath>
    <clipPath
       clipPathUnits="userSpaceOnUse"
       id="clipPath256057">
      <path
         d="M 0,1668 H 2338 V 0 H 0 Z"
         id="path256055" />
    </clipPath>
    <clipPath
       clipPathUnits="userSpaceOnUse"
       id="clipPath255835-7">
      <path
         d="M 0,1668 H 2338 V 0 H 0 Z"
         id="path255833-6" />
    </clipPath>
    <clipPath
       clipPathUnits="userSpaceOnUse"
       id="clipPath255879-2">
      <path
         d="M 0,1668 H 2338 V 0 H 0 Z"
         id="path255877-7" />
    </clipPath>
    <clipPath
       clipPathUnits="userSpaceOnUse"
       id="clipPath255949-0">
      <path
         d="M 0,1668 H 2338 V 0 H 0 Z"
         id="path255947-3" />
    </clipPath>
    <clipPath
       clipPathUnits="userSpaceOnUse"
       id="clipPath255993-9">
      <path
         d="M 0,1668 H 2338 V 0 H 0 Z"
         id="path255991-9" />
    </clipPath>
    <clipPath
       clipPathUnits="userSpaceOnUse"
       id="clipPath256165-9">
      <path
         d="M 0,1668 H 2338 V 0 H 0 Z"
         id="path256163-1" />
    </clipPath>
    <clipPath
       clipPathUnits="userSpaceOnUse"
       id="clipPath256237-7">
      <path
         d="M 0,1668 H 2338 V 0 H 0 Z"
         id="path256235-2" />
    </clipPath>
    <clipPath
       clipPathUnits="userSpaceOnUse"
       id="clipPath256353-3">
      <path
         d="M 0,1668 H 2338 V 0 H 0 Z"
         id="path256351-6" />
    </clipPath>
    <clipPath
       clipPathUnits="userSpaceOnUse"
       id="clipPath256425-5">
      <path
         d="M 0,1668 H 2338 V 0 H 0 Z"
         id="path256423-5" />
    </clipPath>
    <clipPath
       clipPathUnits="userSpaceOnUse"
       id="clipPath256477-8">
      <path
         d="M 0,1668 H 2338 V 0 H 0 Z"
         id="path256475-1" />
    </clipPath>
    <clipPath
       clipPathUnits="userSpaceOnUse"
       id="clipPath256565-4">
      <path
         d="M 0,1668 H 2338 V 0 H 0 Z"
         id="path256563-7" />
    </clipPath>
    <clipPath
       clipPathUnits="userSpaceOnUse"
       id="clipPath256657-1">
      <path
         d="M 0,1668 H 2338 V 0 H 0 Z"
         id="path256655-3" />
    </clipPath>
    <clipPath
       clipPathUnits="userSpaceOnUse"
       id="clipPath256057-8">
      <path
         d="M 0,1668 H 2338 V 0 H 0 Z"
         id="path256055-4" />
    </clipPath>
    <clipPath
       clipPathUnits="userSpaceOnUse"
       id="clipPath256565-0">
      <path
         d="M 0,1668 H 2338 V 0 H 0 Z"
         id="path256563-2" />
    </clipPath>
  </defs>
  <g
     inkscape:label="Layer 1"
     inkscape:groupmode="layer"
     id="layer1">
    <g
       id="g4468">
      <g
         id="g4444">
        <rect
           style="opacity:0;fill:#ffffff;stroke:#000000;stroke-width:0.20297;stroke-linejoin:bevel"
           id="rect18707"
           width="209.52"
           height="298.33255"
           x="0.68988705"
           y="-0.16275766"
           ry="0" />
        <g
           id="g256471"
           transform="matrix(0.35277777,0,0,-0.35277777,-441.89335,570.24512)">
          <g
             id="g256473"
             clip-path="url(#clipPath256477)">
            <g
               id="g256479"
               transform="translate(1465.974,1355.9277)">
              <path
                 d="m 0,0 h 0.32 c 5.711,0 10.34,-4.629 10.34,-10.34 v -7.32 C 10.66,-23.371 6.031,-28 0.32,-28 H 0 c -5.711,0 -10.34,4.629 -10.34,10.34 v 7.32 C -10.34,-4.629 -5.711,0 0,0"
                 style="fill:#98bcec;fill-opacity:1;fill-rule:nonzero;stroke:none"
                 id="path256481" />
            </g>
            <g
               id="g256483"
               transform="translate(1454.634,1309.9277)">
              <path
                 d="m 0,0 h -17 l -9,12 1,53 L 4,70 7,46 4,44 3,23 16,19 9,4 Z"
                 style="fill:#9aa6ad;fill-opacity:1;fill-rule:nonzero;stroke:none"
                 id="path256485" />
            </g>
            <g
               id="g256487"
               transform="translate(1461.634,1355.9277)">
              <path
                 d="M 0,0 11,-2 9,24 2,33 -11,36 V 24 l 8,-2 z"
                 style="fill:#ffffff;fill-opacity:1;fill-rule:nonzero;stroke:none"
                 id="path256489" />
            </g>
            <g
               id="g256491"
               transform="translate(1450.634,1391.7877)">
              <path
                 d="m 0,0 c 2.3,-0.09 4.63,-0.24 6.81,-0.48 6.81,-0.75 12.2,-6.09 13.02,-12.89 l 2.6,-24.49"
                 style="fill:none;stroke:#929092;stroke-width:6;stroke-linecap:round;stroke-linejoin:round;stroke-miterlimit:4;stroke-dasharray:none;stroke-opacity:1"
                 id="path256493" />
            </g>
            <g
               id="g256495"
               transform="translate(1427.634,1338.9277)">
              <path
                 d="M 0,0 H -5.68 C -10.83,0 -15,4.17 -15,9.32 v 19.63 c 0,12.19 9.23,22.41 21.36,23.65 1.11,0.11 7.76,0.55 15.64,0.25"
                 style="fill:none;stroke:#6482ae;stroke-width:6;stroke-linecap:round;stroke-linejoin:round;stroke-miterlimit:4;stroke-dasharray:none;stroke-opacity:1"
                 id="path256497" />
            </g>
            <g
               id="g256499"
               transform="translate(1450.834,1392.0278)">
              <path
                 d="m 0,0 c 0,0 -1.2,-4.1 -1.2,-7.1 0,-3 0.5,-5 0.5,-5"
                 style="fill:none;stroke:#6482ae;stroke-width:6;stroke-linecap:round;stroke-linejoin:round;stroke-miterlimit:4;stroke-dasharray:none;stroke-opacity:1"
                 id="path256501" />
            </g>
            <g
               id="g256503"
               transform="translate(1452.634,1380.3278)">
              <path
                 d="M 0,0 H 4 C 6.68,-1.91 7.4,-4.88 7.71,-8.15 L 9.29,-24.41"
                 style="fill:none;stroke:#525d5f;stroke-width:4;stroke-linecap:round;stroke-linejoin:round;stroke-miterlimit:4;stroke-dasharray:none;stroke-opacity:1"
                 id="path256505" />
            </g>
            <g
               id="g256507"
               transform="translate(1470.634,1328.8978)">
              <path
                 d="m 0,0 c 0,-10.48 -8.49,-19.97 -18.97,-19.97 h -5.06 C -34.51,-19.97 -43,-11.48 -43,-1 v 33.06 c 0,10.48 8.49,18.97 18.97,18.97 h 9.06"
                 style="fill:none;stroke:#525d5f;stroke-width:6;stroke-linecap:round;stroke-linejoin:round;stroke-miterlimit:4;stroke-dasharray:none;stroke-opacity:1"
                 id="path256509" />
            </g>
            <g
               id="g256511"
               transform="translate(1466.134,1355.9277)">
              <path
                 d="m 0,0 v 0 c 5.799,0 10.5,-4.701 10.5,-10.5 v -7 C 10.5,-23.299 5.799,-28 0,-28 c -5.799,0 -10.5,4.701 -10.5,10.5 v 7 C -10.5,-4.701 -5.799,0 0,0 Z"
                 style="fill:none;stroke:#6482ae;stroke-width:6;stroke-linecap:round;stroke-linejoin:round;stroke-miterlimit:4;stroke-dasharray:none;stroke-opacity:1"
                 id="path256513" />
            </g>
          </g>
        </g>
      </g>
    </g>
  </g>
</svg>
